<svg width="38" height="38" viewBox="0 0 38 38" fill="none" xmlns="http://www.w3.org/2000/svg">
<path d="M19 2.375C8.50547 2.375 0 9.28477 0 17.8125C0 21.4937 1.58828 24.8633 4.23047 27.5129C3.30273 31.2535 0.200391 34.5859 0.163281 34.623C0 34.7938 -0.0445312 35.0461 0.0519531 35.2687C0.148438 35.4914 0.35625 35.625 0.59375 35.625C5.51445 35.625 9.20312 33.2648 11.0289 31.8102C13.4559 32.723 16.15 33.25 19 33.25C29.4945 33.25 38 26.3402 38 17.8125C38 9.28477 29.4945 2.375 19 2.375ZM9.5 20.1875C8.18633 20.1875 7.125 19.1262 7.125 17.8125C7.125 16.4988 8.18633 15.4375 9.5 15.4375C10.8137 15.4375 11.875 16.4988 11.875 17.8125C11.875 19.1262 10.8137 20.1875 9.5 20.1875ZM19 20.1875C17.6863 20.1875 16.625 19.1262 16.625 17.8125C16.625 16.4988 17.6863 15.4375 19 15.4375C20.3137 15.4375 21.375 16.4988 21.375 17.8125C21.375 19.1262 20.3137 20.1875 19 20.1875ZM28.5 20.1875C27.1863 20.1875 26.125 19.1262 26.125 17.8125C26.125 16.4988 27.1863 15.4375 28.5 15.4375C29.8137 15.4375 30.875 16.4988 30.875 17.8125C30.875 19.1262 29.8137 20.1875 28.5 20.1875Z" fill="#F3BC5F"/>
</svg>
