<svg width="54" height="50" viewBox="0 0 54 50" fill="none" xmlns="http://www.w3.org/2000/svg">
<g clip-path="url(#clip0)">
<path d="M46.5 21.5511C47.39 21.5511 48.26 21.2819 49.0001 20.7775C49.7401 20.2731 50.3169 19.5562 50.6575 18.7175C50.9981 17.8788 51.0872 16.9558 50.9135 16.0654C50.7399 15.175 50.3113 14.3571 49.682 13.7152C49.0526 13.0733 48.2508 12.6361 47.3779 12.459C46.505 12.2819 45.6002 12.3728 44.7779 12.7202C43.9557 13.0676 43.2529 13.6559 42.7584 14.4108C42.2639 15.1656 42 16.0531 42 16.9609C42 18.1783 42.4741 19.3458 43.318 20.2066C44.1619 21.0675 45.3065 21.5511 46.5 21.5511ZM29.2003 17.1952C29.7027 17.0396 30.2249 16.9606 30.75 16.9609C31.3582 16.9661 31.9609 17.079 32.5312 17.2947L33.9703 12.6462C34.0715 12.3216 34.1006 11.9782 34.0555 11.6407C34.0104 11.3033 33.8922 10.9803 33.7096 10.6952C33.5269 10.4101 33.2844 10.17 32.9995 9.99242C32.7146 9.81481 32.3945 9.7041 32.0625 9.66832C30.9816 9.53922 29.9803 10.2842 29.6522 11.3428L27.6928 17.6705L29.2003 17.1952ZM8.77969 37.0744C8.85469 37.0562 8.92406 37.0227 9 37.0065V34.5498C9.00245 31.4141 9.97354 28.3589 11.7753 25.8182C13.5771 23.2775 16.1179 21.3806 19.0369 20.3968L25.9463 18.2203L29.1488 7.88103C29.2494 7.55679 29.2782 7.21378 29.2329 6.87681C29.1877 6.53984 29.0696 6.21734 28.8872 5.93263C28.7048 5.64792 28.4627 5.40812 28.1783 5.23057C27.8939 5.05303 27.5744 4.94218 27.2428 4.90604C26.1619 4.7779 25.1597 5.52284 24.8316 6.58145L21.6956 16.7582C21.6356 16.9517 21.5026 17.113 21.326 17.2065C21.1494 17.3 20.9436 17.3181 20.7539 17.2569C20.5642 17.1956 20.4061 17.06 20.3144 16.8799C20.2227 16.6997 20.205 16.4898 20.265 16.2963L24.3309 3.11971C24.4316 2.79547 24.4604 2.45246 24.4151 2.11549C24.3699 1.77852 24.2518 1.45601 24.0694 1.1713C23.887 0.886593 23.6449 0.646793 23.3605 0.469249C23.0761 0.291705 22.7565 0.180855 22.425 0.144717C21.3441 0.016575 20.3438 0.761518 20.0147 1.81917L15.5212 16.3269C15.4613 16.5204 15.3285 16.6817 15.152 16.7753C14.9755 16.869 14.7697 16.8872 14.58 16.8261C14.3903 16.765 14.2321 16.6295 14.1404 16.4494C14.0486 16.2694 14.0307 16.0595 14.0906 15.866L17.7056 4.19935C17.8063 3.87511 17.8351 3.5321 17.7898 3.19513C17.7446 2.85816 17.6265 2.53566 17.4441 2.25095C17.2617 1.96624 17.0196 1.72643 16.7352 1.54889C16.4508 1.37135 16.1312 1.2605 15.7997 1.22436C14.7188 1.08665 13.7175 1.83542 13.3894 2.89403L7.76437 21.049L7.57125 16.2628C7.5731 15.9614 7.51671 15.6625 7.40528 15.3832C7.29386 15.104 7.12959 14.8499 6.92187 14.6354C6.71414 14.421 6.46702 14.2503 6.19464 14.1333C5.92225 14.0163 5.62993 13.9552 5.33438 13.9534C4.09406 13.9486 3.01688 14.9613 3 16.2351V27.0153C3.02953 29.0584 3.57745 31.0588 4.59034 32.8217C5.60324 34.5846 7.04657 36.0497 8.77969 37.0744ZM48.6656 32.2614H33.75C33.5511 32.2614 33.3603 32.1808 33.2197 32.0374C33.079 31.8939 33 31.6993 33 31.4964C33 31.2935 33.079 31.0989 33.2197 30.9554C33.3603 30.812 33.5511 30.7314 33.75 30.7314H45.75C46.0835 30.7316 46.4128 30.6562 46.7142 30.5107C47.0156 30.3652 47.2815 30.1532 47.4927 29.89C47.7039 29.6268 47.8551 29.319 47.9354 28.9888C48.0157 28.6587 48.023 28.3145 47.9569 27.9811C47.7516 26.8909 46.7541 26.1412 45.6656 26.1412H27L31.4147 24.5098C31.6971 24.4208 31.9596 24.2759 32.1871 24.0834C32.4146 23.8909 32.6027 23.6545 32.7407 23.3879C32.8787 23.1212 32.9638 22.8294 32.9913 22.5292C33.0187 22.229 32.9879 21.9262 32.9006 21.6381C32.8133 21.35 32.6713 21.0823 32.4826 20.8502C32.2938 20.6181 32.0621 20.4262 31.8007 20.2855C31.5393 20.1447 31.2532 20.0579 30.9589 20.0299C30.6646 20.0019 30.3677 20.0334 30.0853 20.1224L19.9866 23.302C17.6631 24.0812 15.6401 25.5887 14.206 27.6096C12.7719 29.6305 11.9999 32.0617 12 34.5565V37.0094C13.0817 37.2316 14.1019 37.6952 14.9873 38.367C15.8726 39.0388 16.6013 39.9022 17.121 40.8951C17.6408 41.888 17.9387 42.9859 17.9934 44.1101C18.0481 45.2343 17.8583 46.3569 17.4375 47.3974C19.185 48.4976 21.1965 49.084 23.25 49.092H42.75C43.0835 49.0922 43.4128 49.0168 43.7142 48.8713C44.0156 48.7258 44.2815 48.5138 44.4927 48.2506C44.7039 47.9874 44.8551 47.6796 44.9354 47.3494C45.0157 47.0193 45.023 46.6751 44.9569 46.3417C44.7516 45.2515 43.7541 44.5018 42.6656 44.5018H33.75C33.5511 44.5018 33.3603 44.4212 33.2197 44.2778C33.079 44.1343 33 43.9397 33 43.7368C33 43.5339 33.079 43.3393 33.2197 43.1958C33.3603 43.0524 33.5511 42.9718 33.75 42.9718H45.75C46.0835 42.972 46.4128 42.8966 46.7142 42.7511C47.0156 42.6056 47.2815 42.3936 47.4927 42.1304C47.7039 41.8672 47.8551 41.5594 47.9354 41.2292C48.0157 40.8991 48.023 40.5549 47.9569 40.2215C47.7516 39.1313 46.7541 38.3816 45.6656 38.3816H33.75C33.5511 38.3816 33.3603 38.301 33.2197 38.1576C33.079 38.0141 33 37.8195 33 37.6166C33 37.4137 33.079 37.2191 33.2197 37.0756C33.3603 36.9322 33.5511 36.8516 33.75 36.8516H48.75C49.0835 36.8518 49.4128 36.7764 49.7142 36.6309C50.0156 36.4854 50.2815 36.2734 50.4927 36.0102C50.7039 35.747 50.8551 35.4392 50.9354 35.109C51.0157 34.7789 51.023 34.4347 50.9569 34.1013C50.7516 33.0111 49.7541 32.2614 48.6656 32.2614ZM39 6.25057C39.5933 6.25057 40.1734 6.0711 40.6667 5.73485C41.1601 5.3986 41.5446 4.92068 41.7716 4.36152C41.9987 3.80236 42.0581 3.18708 41.9424 2.59348C41.8266 1.99988 41.5409 1.45462 41.1213 1.02666C40.7018 0.598692 40.1672 0.307246 39.5853 0.189171C39.0033 0.0710968 38.4001 0.131697 37.8519 0.363309C37.3038 0.59492 36.8352 0.987141 36.5056 1.49037C36.1759 1.9936 36 2.58524 36 3.19047C36 4.00206 36.3161 4.78041 36.8787 5.35429C37.4413 5.92817 38.2043 6.25057 39 6.25057ZM10.5 39.9117C9.60998 39.9117 8.73995 40.1809 7.99993 40.6852C7.25991 41.1896 6.68314 41.9065 6.34254 42.7452C6.00195 43.584 5.91283 44.5069 6.08647 45.3973C6.2601 46.2877 6.68868 47.1056 7.31802 47.7476C7.94736 48.3895 8.74918 48.8267 9.62209 49.0038C10.495 49.1809 11.3998 49.09 12.2221 48.7426C13.0443 48.3951 13.7471 47.8068 14.2416 47.052C14.7361 46.2971 15 45.4097 15 44.5018C15 43.2844 14.5259 42.1169 13.682 41.2561C12.8381 40.3953 11.6935 39.9117 10.5 39.9117Z" fill="#F3BC5F"/>
</g>
<defs>
<clipPath id="clip0">
<rect width="54" height="48.9616" fill="white" transform="translate(0 0.130371)"/>
</clipPath>
</defs>
</svg>
