<svg width="22" height="20" viewBox="0 0 22 20" fill="none" xmlns="http://www.w3.org/2000/svg">
<path d="M13.7586 9.47573L11.6231 13.7468C11.3653 14.2667 10.6176 14.2496 10.3813 13.721L7.93636 8.29409L6.64729 11.375H2.60393L10.4457 19.3886C10.7508 19.7023 11.245 19.7023 11.55 19.3886L19.3961 11.375H14.7082L13.7586 9.47573ZM20.3543 2.17534L20.2512 2.06792C18.0383 -0.192236 14.416 -0.192236 12.1989 2.06792L11 3.29683L9.8012 2.07222C7.58831 -0.192237 3.96175 -0.192237 1.74886 2.07222L1.64573 2.17534C-0.446847 4.31519 -0.537081 7.72261 1.33206 9.99995H5.73206L7.27464 6.29605C7.50667 5.74175 8.2887 5.72886 8.53792 6.27886L11.0387 11.8347L13.1442 7.62808C13.3977 7.12105 14.1196 7.12105 14.3731 7.62808L15.559 9.99995H20.668C22.5371 7.72261 22.4469 4.31519 20.3543 2.17534Z" fill="#F3BC5F"/>
</svg>
