<svg width="42" height="48" viewBox="0 0 42 48" fill="none" xmlns="http://www.w3.org/2000/svg">
<g clip-path="url(#clip0)">
<path d="M21.0094 13.2188C15.0469 13.2188 10.2375 18.0282 10.2375 23.9907C10.2375 29.9532 15.0469 34.7625 21.0094 34.7625C26.9719 34.7625 31.7812 29.9532 31.7812 23.9907C31.7812 18.0282 26.9719 13.2188 21.0094 13.2188ZM21.0094 30.9938C17.1563 30.9938 14.0063 27.8532 14.0063 23.9907C14.0063 20.1282 17.1469 16.9875 21.0094 16.9875C24.8719 16.9875 28.0125 20.1282 28.0125 23.9907C28.0125 27.8532 24.8625 30.9938 21.0094 30.9938ZM34.7344 12.7782C34.7344 14.175 33.6094 15.2907 32.2219 15.2907C30.825 15.2907 29.7094 14.1657 29.7094 12.7782C29.7094 11.3907 30.8344 10.2657 32.2219 10.2657C33.6094 10.2657 34.7344 11.3907 34.7344 12.7782ZM41.8687 15.3282C41.7094 11.9625 40.9406 8.9813 38.475 6.52505C36.0187 4.0688 33.0375 3.30005 29.6719 3.1313C26.2031 2.93442 15.8063 2.93442 12.3375 3.1313C8.98126 3.29067 6.00001 4.05942 3.53439 6.51567C1.06876 8.97192 0.309387 11.9532 0.140637 15.3188C-0.0562378 18.7875 -0.0562378 29.1844 0.140637 32.6532C0.300012 36.0188 1.06876 39.0001 3.53439 41.4563C6.00001 43.9126 8.97188 44.6813 12.3375 44.8501C15.8063 45.0469 26.2031 45.0469 29.6719 44.8501C33.0375 44.6907 36.0187 43.9219 38.475 41.4563C40.9312 39.0001 41.7 36.0188 41.8687 32.6532C42.0656 29.1844 42.0656 18.7969 41.8687 15.3282ZM37.3875 36.375C36.6562 38.2126 35.2406 39.6282 33.3938 40.3688C30.6281 41.4657 24.0656 41.2126 21.0094 41.2126C17.9531 41.2126 11.3813 41.4563 8.62501 40.3688C6.78751 39.6376 5.37189 38.2219 4.63126 36.375C3.53439 33.6094 3.78751 27.0469 3.78751 23.9907C3.78751 20.9344 3.54376 14.3625 4.63126 11.6063C5.36251 9.7688 6.77813 8.35317 8.62501 7.61255C11.3906 6.51567 17.9531 6.7688 21.0094 6.7688C24.0656 6.7688 30.6375 6.52505 33.3938 7.61255C35.2313 8.3438 36.6469 9.75942 37.3875 11.6063C38.4844 14.3719 38.2312 20.9344 38.2312 23.9907C38.2312 27.0469 38.4844 33.6188 37.3875 36.375Z" fill="#2E79A3"/>
</g>
<defs>
<clipPath id="clip0">
<rect width="42" height="48" fill="white"/>
</clipPath>
</defs>
</svg>
