<svg width="98" height="98" viewBox="0 0 98 98" fill="none" xmlns="http://www.w3.org/2000/svg">
<g clip-path="url(#clip0)">
<path d="M93.9166 4.08337H4.08341C1.82817 4.08337 0 5.91154 0 8.16655C0 10.4216 1.82817 12.25 4.08341 12.25H93.9168C96.172 12.25 98.0002 10.4218 98.0002 8.16655C98.0002 5.9113 96.1718 4.08337 93.9166 4.08337Z" fill="#2E79A3"/>
<path d="M93.9166 44.9165H4.08341C1.82817 44.9165 0 46.7447 0 48.9999C0 51.2552 1.82817 53.0833 4.08341 53.0833H93.9168C96.172 53.0833 98.0002 51.2552 98.0002 48.9999C98.0002 46.7447 96.1718 44.9165 93.9166 44.9165Z" fill="#2E79A3"/>
<path d="M93.9166 85.75H4.08341C1.82817 85.75 0 87.5782 0 89.8334C0 92.0887 1.82817 93.9168 4.08341 93.9168H93.9168C96.172 93.9168 98.0002 92.0887 98.0002 89.8334C98.0002 87.5782 96.1718 85.75 93.9166 85.75Z" fill="#2E79A3"/>
</g>
<defs>
<clipPath id="clip0">
<rect width="98" height="98" fill="white"/>
</clipPath>
</defs>
</svg>
