<svg width="33" height="38" viewBox="0 0 33 38" fill="none" xmlns="http://www.w3.org/2000/svg">
<path d="M30.3802 36.9604C15.3917 37.8539 1.97309 28.0387 0.383964 15.0586C0.31414 14.4882 0.709892 13.9725 1.32604 13.8084L7.25507 12.2298C7.56768 12.1465 7.90831 12.162 8.21741 12.2736C8.52651 12.3852 8.78443 12.5858 8.94608 12.8402L12.4462 18.3497C12.5957 18.585 12.6544 18.8532 12.6135 19.1138C12.5725 19.3744 12.4341 19.6132 12.2191 19.7943L8.98445 22.5193C11.6176 26.3606 15.7388 29.3297 20.443 30.8858L22.9654 27.6406C23.133 27.4249 23.3793 27.2649 23.667 27.1845C23.9548 27.1042 24.2685 27.1079 24.5609 27.1951L31.4041 29.2379C31.7201 29.3323 31.9919 29.5185 32.1718 29.764C32.3518 30.0095 32.4285 30.2987 32.3886 30.581L31.6315 35.936C31.593 36.2083 31.4483 36.4578 31.221 36.6439C30.9938 36.8299 30.6974 36.9415 30.3802 36.9604V36.9604ZM11.8401 9.7704C13.7299 10.0719 15.3232 11.2352 15.9926 12.8024C16.2161 13.3256 15.8245 13.8744 15.1919 13.9238L14.5183 13.9765C14.0773 14.011 13.6569 13.7844 13.4818 13.4259C13.313 13.0805 13.0506 12.7728 12.7175 12.5296C12.3844 12.2864 11.9907 12.115 11.5704 12.0302C11.1342 11.9426 10.8048 11.6216 10.7672 11.2377L10.7099 10.6513C10.656 10.1006 11.2091 9.66973 11.8401 9.7704V9.7704ZM10.7536 0.61118C18.426 0.731726 25.0796 5.59431 26.5471 12.1429C26.6564 12.6305 26.2677 13.0809 25.7014 13.1252L25.0477 13.1763C24.5335 13.2165 24.0551 12.9052 23.9542 12.4627C22.7165 7.03025 17.1998 3.00589 10.842 2.8887C10.3236 2.87911 9.8882 2.52326 9.84443 2.07559L9.78877 1.50648C9.74057 1.01356 10.1828 0.602205 10.7536 0.61118V0.61118ZM11.2511 5.16458C16.0672 5.3953 20.2082 8.41355 21.3074 12.5072C21.4411 13.0049 21.0516 13.4777 20.4697 13.523L19.8135 13.5742C19.3173 13.6129 18.8475 13.3244 18.7304 12.9005C17.8927 9.87025 14.8283 7.63287 11.2536 7.44127C10.7534 7.41447 10.3454 7.06207 10.303 6.63005L10.2469 6.05885C10.1973 5.55236 10.6646 5.13648 11.2511 5.16458V5.16458Z" fill="#F3BC5F"/>
</svg>
