<svg width="36" height="36" viewBox="0 0 36 36" fill="none" xmlns="http://www.w3.org/2000/svg">
<g clip-path="url(#clip0)">
<path d="M12.375 15.1867H23.625C24.2466 15.1867 24.75 14.6833 24.75 14.0617V12.9367C24.75 12.3152 24.2466 11.8117 23.625 11.8117H12.375C11.7534 11.8117 11.25 12.3152 11.25 12.9367V14.0617C11.25 14.6833 11.7534 15.1867 12.375 15.1867ZM11.25 20.8117C11.25 21.4333 11.7534 21.9367 12.375 21.9367H23.625C24.2466 21.9367 24.75 21.4333 24.75 20.8117V19.6867C24.75 19.0652 24.2466 18.5617 23.625 18.5617H12.375C11.7534 18.5617 11.25 19.0652 11.25 19.6867V20.8117ZM18 29.3287C16.8455 29.3287 15.6909 28.9729 14.7052 28.2606L0 17.6378V32.6242C0 34.4882 1.51102 35.9992 3.375 35.9992H32.625C34.489 35.9992 36 34.4882 36 32.6242V17.6378L21.2948 28.2606C20.3091 28.9722 19.1545 29.3287 18 29.3287ZM34.707 11.4567C34.0847 10.9687 33.4948 10.5096 32.625 9.85283V6.74924C32.625 4.88526 31.114 3.37424 29.25 3.37424H23.7973C23.5835 3.21955 23.3845 3.07471 23.1616 2.91299C21.9797 2.05026 19.6313 -0.025369 18 -0.000759622C16.3687 -0.025369 14.021 2.05026 12.8384 2.91299C12.6155 3.07471 12.4165 3.21955 12.2027 3.37424H6.75C4.88602 3.37424 3.375 4.88526 3.375 6.74924V9.85283C2.50523 10.5088 1.91531 10.9687 1.29305 11.4567C0.890267 11.7723 0.564549 12.1754 0.340533 12.6355C0.116517 13.0956 6.93145e-05 13.6006 0 14.1124L0 14.8612L6.75 19.7374V6.74924H29.25V19.7374L36 14.8612V14.1124C36 13.076 35.5233 12.0965 34.707 11.4567Z" fill="#F3BC5F"/>
</g>
<defs>
<clipPath id="clip0">
<rect width="36" height="36" fill="white"/>
</clipPath>
</defs>
</svg>
