<svg width="57" height="60" viewBox="0 0 57 60" fill="none" xmlns="http://www.w3.org/2000/svg">
<g clip-path="url(#clip0)">
<path d="M0.0176677 21.8841C-0.240614 28.6737 2.56152 34.7889 7.12597 38.9701V59.0836H24.9385V36.884L0.409543 18.6852C0.197587 19.7395 0.066565 20.809 0.0176677 21.8841ZM56.6915 32.1702C54.3536 26.8193 51.2921 14.9377 48.5512 10.9632C46.414 7.86899 43.5796 5.34367 40.2862 3.5997C36.9929 1.85574 33.3372 0.944151 29.6265 0.94165L22.2666 0.94165C13.0264 0.94165 4.73019 6.6843 1.47607 14.9831L26.6318 33.6465H56.9743C56.9841 33.1395 56.8877 32.6361 56.6915 32.1702ZM35.626 26.3787C34.9214 26.3787 34.2326 26.1656 33.6467 25.7663C33.0609 25.367 32.6043 24.7995 32.3346 24.1355C32.065 23.4715 31.9945 22.7408 32.1319 22.0359C32.2694 21.331 32.6087 20.6835 33.1069 20.1753C33.6051 19.6671 34.2399 19.321 34.931 19.1808C35.622 19.0406 36.3383 19.1126 36.9893 19.3876C37.6402 19.6626 38.1966 20.1284 38.5881 20.726C38.9795 21.3236 39.1885 22.0262 39.1885 22.7449C39.1864 23.708 38.8104 24.6311 38.1428 25.3121C37.4751 25.9931 36.5702 26.3766 35.626 26.3787ZM37.4072 42.7311H55.2197L57.001 37.2803H28.501V59.0836H44.7415C46.2368 59.0834 47.6941 58.6034 48.9072 57.7116C50.1202 56.8197 51.0274 55.5612 51.5002 54.1142L51.6572 53.6328H37.4072C36.9348 53.6328 36.4817 53.4413 36.1477 53.1006C35.8136 52.7598 35.626 52.2977 35.626 51.8158C35.626 51.3339 35.8136 50.8718 36.1477 50.531C36.4817 50.1903 36.9348 49.9989 37.4072 49.9989H52.8451L54.033 46.365H37.4072C36.9348 46.365 36.4817 46.1736 36.1477 45.8328C35.8136 45.4921 35.626 45.03 35.626 44.5481C35.626 44.0662 35.8136 43.604 36.1477 43.2633C36.4817 42.9226 36.9348 42.7311 37.4072 42.7311Z" fill="#F3BC5F"/>
</g>
<defs>
<clipPath id="clip0">
<rect width="57" height="58.1419" fill="white" transform="translate(0 0.94165)"/>
</clipPath>
</defs>
</svg>
