<svg width="260" height="347" viewBox="0 0 260 347" fill="none" xmlns="http://www.w3.org/2000/svg">
<g clip-path="url(#clip0)">
<path fill-rule="evenodd" clip-rule="evenodd" d="M243.57 196.678C216.519 196.284 203.174 293.941 205.446 300.96C205.966 302.558 207.2 304.312 208.783 305.988H232.58C236.174 298.308 241.322 282.671 245.367 265.398L238.568 261.599L247.154 257.276C249.046 248.387 250.376 239.387 251.137 230.331L244.464 228.791L248.135 223.448L243.92 222.476L251.132 214.661C250.355 206.184 248.131 199.573 243.57 196.678Z" fill="#AADAF1"/>
<path d="M243.502 196.683L218.875 305.978" stroke="#72A5BD" stroke-width="2" stroke-linecap="round" stroke-linejoin="round"/>
<path fill-rule="evenodd" clip-rule="evenodd" d="M194.66 173.313C161.636 185.622 184.558 293.999 191.149 305.667H226.087C226.135 305.575 226.208 305.502 226.252 305.41C230.137 297.506 229.195 244.029 218.666 207.544L209.982 207.743L215.907 199.107C210.774 184.937 203.839 174.625 194.66 173.313Z" fill="#AADAF1"/>
<path d="M164.821 305.992H259.524" stroke="#72A5BD" stroke-width="2" stroke-linecap="round" stroke-linejoin="round"/>
<path d="M194.582 173.347L210.575 305.735" stroke="#72A5BD" stroke-width="2" stroke-linecap="round" stroke-linejoin="round"/>
<path fill-rule="evenodd" clip-rule="evenodd" d="M189.26 291.94C192.659 294.407 202.95 302.728 203.509 304.987C204.067 307.246 198.448 322.29 197.244 323.378C196.039 324.466 184.102 327.356 183.534 328.128C182.965 328.901 183.422 331.262 183.99 332.423C184.558 333.583 202.819 332.272 202.819 332.272C202.819 332.272 226.524 308.849 226.228 307.11C225.931 305.371 199.337 281.365 199.337 281.365C199.337 281.365 185.87 289.477 189.26 291.94Z" fill="#EFD4C4"/>
<path fill-rule="evenodd" clip-rule="evenodd" d="M215.587 296.37C214.679 302.51 211.464 311.773 201.386 313.556C199.823 318.112 197.899 322.785 197.239 323.378C196.034 324.461 184.102 327.356 183.534 328.128C182.966 328.901 183.432 331.262 183.99 332.422C184.549 333.583 202.814 332.272 202.814 332.272C202.814 332.272 226.534 308.858 226.232 307.119C226.106 306.386 221.085 301.538 215.587 296.37Z" fill="#6367FD"/>
<path fill-rule="evenodd" clip-rule="evenodd" d="M71.6244 312.545C70.4199 315.742 57.5064 346.344 56.1368 346.986C54.7673 347.627 16.5123 328.964 16.2209 327.123C15.9295 325.282 17.6778 321.376 19.0571 321.658C33.6705 324.573 51.4503 325.568 53.388 321.882C55.3258 318.195 57.8172 309.626 57.8172 309.626C57.8172 309.626 72.8482 309.373 71.6244 312.545Z" fill="#EFD4C4"/>
<path fill-rule="evenodd" clip-rule="evenodd" d="M19.0522 321.658C17.6535 321.381 15.91 325.287 16.216 327.123C16.522 328.959 54.7575 347.641 56.1319 346.981C56.739 346.684 59.7209 340.248 62.8534 333.151C51.0471 334.934 44.7676 329.401 42.1062 324.228C34.3606 324.057 26.6455 323.197 19.0522 321.658Z" fill="#6367FD"/>
<path fill-rule="evenodd" clip-rule="evenodd" d="M107.772 224.453C146.789 272.84 184.704 298.619 184.704 298.619L204.888 278.217L146.609 210.396C146.609 210.396 151.388 158.041 141.267 148.437C131.146 138.834 83.2363 194.03 107.772 224.453Z" fill="#C4C4C4"/>
<path fill-rule="evenodd" clip-rule="evenodd" d="M91.3322 145.304L51.3143 308.888L73.0085 319.574C73.0085 319.574 109.34 223.88 114.712 218.051C125.765 206.077 143.705 163.015 142.137 146.349C140.568 129.682 91.3322 145.304 91.3322 145.304Z" fill="#C4C4C4"/>
<path fill-rule="evenodd" clip-rule="evenodd" d="M161.048 156.734C161.975 159.828 164.982 166.265 162.121 177.782C167.541 186.161 165.011 192.063 152.597 193.545C150.509 190.995 148.411 189.319 146.085 185.641C145.327 182.329 145.395 177.243 145.327 175.863C145.196 173.075 150.859 160.742 149.844 155.787C148.829 150.832 160.115 153.635 161.048 156.734Z" fill="#EFD4C4"/>
<path d="M163.005 189.639C161.711 188.269 160.551 186.777 159.542 185.185" stroke="#CB5D66" stroke-width="2" stroke-linecap="round" stroke-linejoin="round"/>
<path d="M157.639 192.549C155.599 190.577 152.617 186.414 151.087 183.917" stroke="#CB5D66" stroke-width="2" stroke-linecap="round" stroke-linejoin="round"/>
<path fill-rule="evenodd" clip-rule="evenodd" d="M57.8415 144.464C55.2578 146.557 52.577 149.045 49.1337 150.346C43.9857 151.59 34.564 161.922 34.564 164.147C34.564 166.255 36.4435 166.964 37.6139 167.061C38.6241 167.124 40.7756 164.788 41.3195 164.122C40.3822 166.26 39.8625 169.155 40.8775 170.063C41.8926 170.972 43.4127 171.287 44.4277 170.112C46.108 168.169 45.6952 165.963 45.8506 164.671C46.6763 163.093 48.9248 159.581 49.8767 159.153C50.5421 159.187 51.5425 159.42 51.7319 160.484C51.9213 161.548 49.4493 163.923 49.1725 164.914C49.1725 166.172 50.5421 167.77 51.7319 167.455C53.082 167.095 57.2587 163.039 58.1814 161.932C59.4247 160.44 59.988 157.186 60.6534 156.103C61.3187 155.019 63.9024 152.702 64.3832 152.217C64.864 151.731 60.4203 142.375 57.8415 144.464Z" fill="#EFD4C4"/>
<path d="M51.1491 159.527C48.0895 156.987 43.3155 162.189 41.1447 164.288" stroke="#CB5D66" stroke-width="2" stroke-linecap="round" stroke-linejoin="round"/>
<path fill-rule="evenodd" clip-rule="evenodd" d="M97.9517 61.2053C87.9472 70.7698 83.0469 94.7225 80.3855 110.14C71.6098 118.777 53.9368 137.901 53.9514 142.492C53.9659 147.082 62.5912 154.747 64.7863 154.694C66.9815 154.641 87.4178 132.271 90.594 129.658C93.7702 127.045 100.336 58.9174 97.9517 61.2053Z" fill="#F7D167"/>
<path fill-rule="evenodd" clip-rule="evenodd" d="M94.251 21.859C92.9057 20.6495 90.6232 20.1832 90.6232 13.5283C90.6232 6.44113 99.0736 0 109.836 0C126.736 0 131.646 14.8253 132.229 20.0666C132.812 25.3079 131.894 37.7093 133.069 42.7466C135.43 53.0543 145.342 61.011 145.342 78.2359C145.342 83.4724 122.633 78.9354 118.568 78.3282C114.503 77.721 109.758 50.7567 109.758 50.7567C109.758 50.7567 95.5963 23.0686 94.251 21.859Z" fill="black"/>
<path fill-rule="evenodd" clip-rule="evenodd" d="M120.063 37.7093C119.252 40.9833 119.136 54.9876 119.738 59.6606C116.984 61.6376 106.737 61.4093 104.6 59.2671C105.246 53.4963 105.246 48.3619 104.6 45.8651C103.954 43.3683 120.875 34.4353 120.063 37.7093Z" fill="#EFD4C4"/>
<path fill-rule="evenodd" clip-rule="evenodd" d="M89.8461 27.4355C89.8461 16.2243 97.9565 7.13577 107.966 7.13577C117.975 7.13577 126.086 16.2243 126.086 27.4355C126.086 38.6468 117.975 47.7304 107.966 47.7304C97.9565 47.7304 89.8461 38.6419 89.8461 27.4355Z" fill="#EFD4C4"/>
<path fill-rule="evenodd" clip-rule="evenodd" d="M111.516 46.6617C111.249 43.1934 108.398 35.6594 106.912 34.7607C105.426 33.8621 93.7605 32.4825 89.8461 26.6534C87.8549 28.3002 86.2231 31.3604 86.3834 31.9968C86.7136 33.3132 89.8364 35.5428 89.8364 35.5428C89.8364 35.5428 90.5406 43.9852 96.6355 47.7498C101.04 50.4798 109.758 48.2502 111.516 46.6617Z" fill="white"/>
<path d="M106.528 35.8877C108.563 32.4874 114.012 28.0379 116.912 26.7943" stroke="white" stroke-width="2" stroke-linecap="round" stroke-linejoin="round"/>
<path d="M109.204 40.9541C109.204 40.9541 120.739 42.7174 122.608 37.7093" stroke="white" stroke-width="2" stroke-linecap="round" stroke-linejoin="round"/>
<path fill-rule="evenodd" clip-rule="evenodd" d="M98.0294 8.41328C100.404 10.5603 101.453 15.9231 103.624 18.6142C107.145 22.986 113.915 23.7292 115.999 29.4951C118.082 35.261 128.985 30.6026 128.985 30.6026L127.586 16.8946L119.51 8.44728L106.951 4.85754C106.951 4.85754 95.6739 6.26138 98.0294 8.41328Z" fill="black"/>
<path fill-rule="evenodd" clip-rule="evenodd" d="M112.886 32.4826C112.886 31.1125 113.292 29.7733 114.053 28.6342C114.814 27.4951 115.895 26.6072 117.161 26.0829C118.426 25.5587 119.819 25.4215 121.162 25.6888C122.505 25.956 123.739 26.6158 124.708 27.5845C125.677 28.5532 126.336 29.7875 126.603 31.1312C126.871 32.4749 126.733 33.8676 126.209 35.1334C125.685 36.3991 124.797 37.4809 123.659 38.242C122.52 39.0032 121.181 39.4094 119.811 39.4094C117.975 39.4081 116.214 38.6779 114.915 37.3792C113.617 36.0804 112.887 34.3193 112.886 32.4826Z" fill="#EFD4C4"/>
<path fill-rule="evenodd" clip-rule="evenodd" d="M97.704 26.0268C97.704 24.623 98.3208 23.4863 99.0784 23.4863C99.836 23.4863 100.458 24.623 100.458 26.0268C100.458 27.4307 99.8409 28.5673 99.0784 28.5673C98.3159 28.5673 97.704 27.4307 97.704 26.0268Z" fill="#CB5D66"/>
<path fill-rule="evenodd" clip-rule="evenodd" d="M112.346 52.0682C142.083 52.0682 162.801 108.465 164.957 117.019C167.114 125.573 165.443 156.763 164.671 159.134C161.723 159.712 151.073 157.759 148.858 156.428C146.915 153.183 146.201 128.589 145.41 126.36C144.852 124.483 143.868 122.761 142.535 121.327C143.399 127.943 142.462 144.187 141.889 146.558C141.316 148.928 95.1592 148.816 91.6576 147.349C89.4624 146.431 87.9132 145.474 87.6024 143.259C87.1167 139.602 88.6028 137.182 88.1997 134.127C87.7966 131.072 86.0823 130.6 85.5626 125.626C85.0235 120.419 88.5348 113.482 87.3838 108.343C81.3034 81.1553 95.8828 52.0682 112.346 52.0682Z" fill="#F7D167"/>
<path fill-rule="evenodd" clip-rule="evenodd" d="M105.95 51.8836H118.723C119.476 51.8836 120.088 52.7483 120.088 53.8267V59.102C120.088 60.1658 119.476 61.045 118.723 61.045H105.95C105.193 61.045 104.581 60.1804 104.581 59.102V53.8121C104.581 52.7483 105.193 51.8836 105.95 51.8836Z" fill="#F7D167"/>
<path d="M56.1271 311.258L104.013 152.95" stroke="#8D8D8D" stroke-width="2" stroke-linecap="round" stroke-linejoin="round"/>
<path d="M76.5489 310.325L53.7231 299.017" stroke="#8D8D8D" stroke-width="2" stroke-linecap="round" stroke-linejoin="round"/>
<path d="M101.934 225.668C99.6175 227.004 94.693 226.294 92.2938 224.696" stroke="#8D8D8D" stroke-width="2" stroke-linecap="round" stroke-linejoin="round"/>
<path d="M95.572 212.018L105.708 221.573" stroke="#8D8D8D" stroke-width="2" stroke-linecap="round" stroke-linejoin="round"/>
<path d="M109.836 227.416C112.104 222.403 113.828 219.003 114.692 218.046C124.546 207.36 139.878 171.982 141.976 152.62" stroke="#8D8D8D" stroke-width="2" stroke-linecap="round" stroke-linejoin="round"/>
<path d="M191.508 291.736C191.508 291.736 126.188 229.364 123.152 226.921C122.958 222.549 122.667 214.034 119.641 211.421" stroke="#8D8D8D" stroke-width="2" stroke-linecap="round" stroke-linejoin="round"/>
<path d="M145.162 214.345C143.069 215.778 139.49 220.893 139.257 223.846" stroke="#8D8D8D" stroke-width="2" stroke-linecap="round" stroke-linejoin="round"/>
<path d="M142.782 212.373C141.612 212.703 138.232 214.627 137.367 216.186" stroke="#8D8D8D" stroke-width="2" stroke-linecap="round" stroke-linejoin="round"/>
<path d="M142.884 209.58L138.645 209.264L131.612 206.607" stroke="#8D8D8D" stroke-width="2" stroke-linecap="round" stroke-linejoin="round"/>
<path d="M142.739 209.57L138.854 209.278" stroke="#8D8D8D" stroke-width="2" stroke-linecap="round" stroke-linejoin="round"/>
<path d="M198.574 270.858L175.807 292.027" stroke="#8D8D8D" stroke-width="2" stroke-linecap="round" stroke-linejoin="round"/>
<path d="M88.2823 157.779C88.2823 157.779 105.188 160.839 115.639 159.411" stroke="#8D8D8D" stroke-width="2" stroke-linecap="round" stroke-linejoin="round"/>
<path d="M90.2638 148.156C88.8068 147.383 87.8355 146.426 87.6024 144.712C87.1167 141.059 88.6028 138.635 88.1997 135.584C87.7966 132.534 86.0823 132.058 85.5626 127.084C85.0235 121.876 88.5348 114.94 87.3838 109.8C85.2558 99.9823 85.5525 89.7933 88.2483 80.1158" stroke="#E1B29D" stroke-width="2" stroke-linecap="round" stroke-linejoin="round"/>
<path d="M69.8177 150.623C68.0402 149.608 58.9293 141.307 56.7487 136.847" stroke="#E1B29D" stroke-width="2" stroke-linecap="round" stroke-linejoin="round"/>
<path d="M67.4331 148.753L62.7174 153.81" stroke="#E1B29D" stroke-width="2" stroke-linecap="round" stroke-linejoin="round"/>
<path d="M64.4026 146.417L59.6918 151.478" stroke="#E1B29D" stroke-width="2" stroke-linecap="round" stroke-linejoin="round"/>
<path d="M61.4596 143.696L57.0061 148.476" stroke="#E1B29D" stroke-width="2" stroke-linecap="round" stroke-linejoin="round"/>
<path d="M59.1041 140.612L54.7624 145.27" stroke="#E1B29D" stroke-width="2" stroke-linecap="round" stroke-linejoin="round"/>
<path d="M165.433 152.916L147.464 150.973" stroke="#E1B29D" stroke-width="2" stroke-linecap="round" stroke-linejoin="round"/>
<path d="M162.466 152.595L161.98 160.644" stroke="#E1B29D" stroke-width="2" stroke-linecap="round" stroke-linejoin="round"/>
<path d="M157.974 152.105L157.284 160.081" stroke="#E1B29D" stroke-width="2" stroke-linecap="round" stroke-linejoin="round"/>
<path d="M153.554 151.624L153.035 159.241" stroke="#E1B29D" stroke-width="2" stroke-linecap="round" stroke-linejoin="round"/>
<path d="M166.405 132.097C163.734 132.094 161.147 131.165 159.085 129.467C157.023 127.77 155.614 125.409 155.098 122.788C154.582 120.167 154.992 117.448 156.256 115.096C157.521 112.743 159.563 110.902 162.034 109.888" stroke="#E1B29D" stroke-width="2" stroke-linecap="round" stroke-linejoin="round"/>
<path d="M142.54 122.785C140.947 120.171 122.404 90.9093 121.443 89.7532" stroke="#E1B29D" stroke-width="2" stroke-linecap="round" stroke-linejoin="round"/>
<path d="M117.237 89.8941L121.462 89.6415" stroke="#E1B29D" stroke-width="2" stroke-linecap="round" stroke-linejoin="round"/>
<path d="M117.854 94.5865L121.414 89.6463" stroke="#E1B29D" stroke-width="2" stroke-linecap="round" stroke-linejoin="round"/>
<path d="M120.845 97.1512L121.394 89.7192" stroke="#E1B29D" stroke-width="2" stroke-linecap="round" stroke-linejoin="round"/>
<path d="M96.5433 135.526L109.583 129.158" stroke="#E1B29D" stroke-width="2" stroke-linecap="round" stroke-linejoin="round"/>
<path d="M109.36 127.443L92.1627 130.897" stroke="#E1B29D" stroke-width="2" stroke-linecap="round" stroke-linejoin="round"/>
<path d="M94.3044 128.283L108.685 118.811" stroke="#E1B29D" stroke-width="2" stroke-linecap="round" stroke-linejoin="round"/>
<path d="M112.618 61.0158H105.95C105.193 61.0158 104.581 60.1512 104.581 59.0728V53.8121C104.581 52.7483 105.193 51.869 105.95 51.869H118.723C118.939 51.8817 119.148 51.9501 119.329 52.0676C119.51 52.1851 119.658 52.3477 119.758 52.5394" stroke="#E1B29D" stroke-width="2" stroke-linecap="round" stroke-linejoin="round"/>
<path d="M107.942 51.8836L108.029 61.0159" stroke="#E1B29D" stroke-width="2" stroke-linecap="round" stroke-linejoin="round"/>
<path d="M111.701 52.0099L111.744 56.4497L111.788 61.1421" stroke="#E1B29D" stroke-width="2" stroke-linecap="round" stroke-linejoin="round"/>
<path d="M115.906 52.0099L115.95 56.4497L115.994 61.1421" stroke="#E1B29D" stroke-width="2" stroke-linecap="round" stroke-linejoin="round"/>
<path d="M58.7885 342.099L17.095 323.402" stroke="white" stroke-width="2" stroke-linecap="round" stroke-linejoin="round"/>
<path d="M223.77 304.268L201.401 328.313L183.432 330.688" stroke="white" stroke-width="2" stroke-linecap="round" stroke-linejoin="round"/>
<path fill-rule="evenodd" clip-rule="evenodd" d="M5.91526 42.1976C2.83136 40.8958 3.21988 33.5803 6.49805 30.7775C9.77622 27.9747 18.0081 25.5508 21.2474 16.8169C22.4227 14.4415 25.9339 17.9001 26.8518 23.8021C27.3618 37.8453 12.6804 45.0539 5.91526 42.1976Z" fill="#AADAF1"/>
<path d="M20.582 25.2933C20.0915 28.3925 13.5983 42.3628 0.485657 45.9185" stroke="#72A5BD" stroke-width="2" stroke-linecap="round" stroke-linejoin="round"/>
<path d="M89.8461 26.6534C87.8549 28.3002 86.2231 31.3604 86.3834 31.9968C86.7136 33.3132 89.8364 35.5428 89.8364 35.5428C89.8364 35.5428 90.5406 43.9852 96.6355 47.7498C98.7773 49.0711 101.934 49.2071 104.819 48.8428" stroke="#C9C9C9" stroke-width="2" stroke-linecap="round" stroke-linejoin="round"/>
<path d="M227.077 302.733C229.579 290.847 228.68 252.302 221.837 220.32" stroke="#72A5BD" stroke-width="2" stroke-linecap="round" stroke-linejoin="round"/>
</g>
<defs>
<clipPath id="clip0">
<rect width="260" height="347" fill="white"/>
</clipPath>
</defs>
</svg>
