<svg width="55" height="50" viewBox="0 0 55 50" fill="none" xmlns="http://www.w3.org/2000/svg">
<g clip-path="url(#clip0)">
<path d="M9.16667 12.365C10.3753 12.365 11.5569 11.9986 12.5618 11.3121C13.5668 10.6256 14.3501 9.64985 14.8126 8.50823C15.2751 7.36661 15.3962 6.11041 15.1604 4.89847C14.9246 3.68653 14.3425 2.5733 13.4879 1.69954C12.6332 0.825785 11.5443 0.230749 10.3589 -0.0103204C9.17345 -0.251389 7.94471 -0.127664 6.82805 0.34521C5.71139 0.818084 4.75696 1.61887 4.08546 2.6463C3.41397 3.67373 3.05556 4.88166 3.05556 6.11734C3.05556 7.77433 3.6994 9.36346 4.84546 10.5351C5.99151 11.7068 7.5459 12.365 9.16667 12.365ZM9.16667 29.554C9.16531 28.9703 9.28006 28.3923 9.50396 27.8553C9.72786 27.3183 10.0562 26.8334 10.4691 26.4302L17.3565 19.7842C17.5141 19.6329 17.7165 19.5587 17.8922 19.4357C17.4428 18.2727 16.662 17.2745 15.6509 16.5708C14.6399 15.867 13.4454 15.4901 12.2222 15.4889H6.11111C4.49034 15.4889 2.93596 16.1471 1.7899 17.3188C0.643847 18.4905 0 20.0796 0 21.7366L0 31.1082C0 31.9367 0.321924 32.7312 0.894952 33.3171C1.46798 33.9029 2.24517 34.232 3.05556 34.232V46.7274C3.05556 47.5559 3.37748 48.3505 3.95051 48.9363C4.52353 49.5221 5.30073 49.8513 6.11111 49.8513H12.2222C13.0326 49.8513 13.8098 49.5221 14.3828 48.9363C14.9559 48.3505 15.2778 47.5559 15.2778 46.7274V37.3178L10.4691 32.6779C10.0561 32.2747 9.72763 31.7899 9.50373 31.2529C9.27982 30.7158 9.16514 30.1378 9.16667 29.554ZM45.8333 12.365C47.042 12.365 48.2235 11.9986 49.2285 11.3121C50.2335 10.6256 51.0167 9.64985 51.4793 8.50823C51.9418 7.36661 52.0628 6.11041 51.827 4.89847C51.5912 3.68653 51.0092 2.5733 50.1545 1.69954C49.2999 0.825785 48.211 0.230749 47.0256 -0.0103204C45.8401 -0.251389 44.6114 -0.127664 43.4947 0.34521C42.3781 0.818084 41.4236 1.61887 40.7521 2.6463C40.0806 3.67373 39.7222 4.88166 39.7222 6.11734C39.7222 7.77433 40.3661 9.36346 41.5121 10.5351C42.6582 11.7068 44.2126 12.365 45.8333 12.365ZM48.8889 15.4889H42.7778C41.5548 15.49 40.3603 15.8668 39.3493 16.5704C38.3382 17.2739 37.5573 18.2719 37.1078 19.4347C37.2835 19.5587 37.4898 19.6299 37.6444 19.7852L44.5309 26.4292C44.9425 26.8334 45.27 27.3185 45.4937 27.8553C45.7174 28.3921 45.8328 28.9696 45.8328 29.5531C45.8328 30.1366 45.7174 30.714 45.4937 31.2508C45.27 31.7877 44.9425 32.2727 44.5309 32.6769L39.7222 37.3188V46.7274C39.7222 47.5559 40.0441 48.3505 40.6172 48.9363C41.1902 49.5221 41.9674 49.8513 42.7778 49.8513H48.8889C49.6993 49.8513 50.4765 49.5221 51.0495 48.9363C51.6225 48.3505 51.9444 47.5559 51.9444 46.7274V34.232C52.7548 34.232 53.532 33.9029 54.1051 33.3171C54.6781 32.7312 55 31.9367 55 31.1082V21.7366C55 20.0796 54.3562 18.4905 53.2101 17.3188C52.064 16.1471 50.5097 15.4889 48.8889 15.4889ZM42.434 28.7008L35.5476 22.0568C35.385 21.8984 35.1805 21.7923 34.9595 21.7517C34.7385 21.7111 34.5106 21.7378 34.3043 21.8285C34.098 21.9192 33.9223 22.0699 33.7991 22.2618C33.6758 22.4537 33.6105 22.6785 33.6111 22.908V26.4224H21.3889V22.908C21.3897 22.6784 21.3245 22.4535 21.2013 22.2614C21.0781 22.0694 20.9025 21.9185 20.6961 21.8277C20.4898 21.7369 20.2619 21.7101 20.0407 21.7507C19.8196 21.7912 19.615 21.8973 19.4524 22.0558L12.566 28.7008C12.3459 28.9276 12.2223 29.2341 12.2223 29.5536C12.2223 29.873 12.3459 30.1795 12.566 30.4063L19.4524 37.0513C19.6151 37.2098 19.8198 37.316 20.041 37.3565C20.2622 37.397 20.4902 37.3701 20.6966 37.2792C20.9029 37.1883 21.0786 37.0373 21.2017 36.8451C21.3248 36.6528 21.3899 36.4278 21.3889 36.1981V32.6701H33.6111V36.1981C33.6101 36.4278 33.6752 36.6528 33.7983 36.8451C33.9214 37.0373 34.0971 37.1883 34.3034 37.2792C34.5098 37.3701 34.7378 37.397 34.959 37.3565C35.1802 37.316 35.3849 37.2098 35.5476 37.0513L42.434 30.4063C42.6541 30.1795 42.7777 29.873 42.7777 29.5536C42.7777 29.2341 42.6541 28.9276 42.434 28.7008Z" fill="#F3BC5F"/>
</g>
<defs>
<clipPath id="clip0">
<rect width="55" height="49.9816" fill="white"/>
</clipPath>
</defs>
</svg>
