<svg width="17" height="19" viewBox="0 0 17 19" fill="none" xmlns="http://www.w3.org/2000/svg">
<path d="M16.6639 16.8126L11.2764 14.2498L16.6643 11.6871C16.9641 11.5405 17.0859 11.1839 16.9356 10.8907L16.3926 9.82829C16.2427 9.53513 15.8781 9.41601 15.5779 9.56259L8.49992 12.9291L1.42191 9.56259C1.12214 9.41601 0.757483 9.53476 0.607219 9.82829L0.0642161 10.8907C-0.0856693 11.1839 0.0357569 11.5405 0.335528 11.6871L5.72343 14.2498L0.335907 16.8126C0.0361363 16.9591 -0.0856693 17.3157 0.0645956 17.6093L0.607598 18.6717C0.757483 18.9649 1.12214 19.084 1.42229 18.937L8.49992 15.5705L15.5779 18.937C15.8777 19.0836 16.2423 18.9649 16.3926 18.6717L16.9356 17.6093C17.0855 17.3157 16.9637 16.9591 16.6639 16.8126ZM5.69194 8.8052L5.48399 9.7652C5.38268 10.2335 5.68966 10.6874 6.1082 10.6874H10.8924C11.3109 10.6874 11.6179 10.2335 11.5166 9.7652L11.3079 8.8052C12.8933 7.97359 13.9641 6.47661 13.9641 4.74994C13.9641 2.12671 11.5177 0 8.49992 0C5.4821 0 3.03574 2.12671 3.03574 4.74994C3.03574 6.47661 4.10657 7.97359 5.69194 8.8052ZM10.6249 4.1562C11.2946 4.1562 11.8391 4.68871 11.8391 5.34368C11.8391 5.99865 11.2946 6.53116 10.6249 6.53116C9.95513 6.53116 9.41061 5.99865 9.41061 5.34368C9.41061 4.68871 9.95513 4.1562 10.6249 4.1562ZM6.37496 4.1562C7.0447 4.1562 7.58922 4.68871 7.58922 5.34368C7.58922 5.99865 7.0447 6.53116 6.37496 6.53116C5.70522 6.53116 5.1607 5.99865 5.1607 5.34368C5.1607 4.68871 5.70522 4.1562 6.37496 4.1562Z" fill="#F3BC5F"/>
</svg>
