<svg width="52" height="52" viewBox="0 0 52 52" fill="none" xmlns="http://www.w3.org/2000/svg">
<g clip-path="url(#clip0)">
<path d="M20.4646 17.7529L26.1216 23.42C26.4365 23.7349 26.4365 24.2529 26.1216 24.5677L24.9739 25.7154C24.6591 26.0302 24.1411 26.0302 23.8263 25.7154L18.1693 20.0482L13.5685 24.6489L19.2357 30.3161C19.5505 30.631 19.5505 31.1489 19.2357 31.4638L18.088 32.6115C17.7732 32.9263 17.2552 32.9263 16.9404 32.6115L11.2732 26.9341L8.59192 29.6154C6.83489 31.3724 5.99192 33.7896 6.25598 36.2575L6.97708 42.7169L0.233325 49.4607C-0.0815186 49.7755 -0.0815186 50.2935 0.233325 50.6083L1.38098 51.756C1.69583 52.0708 2.21379 52.0708 2.52864 51.756L9.26223 45.0224L15.7216 45.7435C18.149 46.0075 20.5864 45.195 22.3638 43.4075L40.838 24.9333L27.056 11.1513L20.4646 17.7529ZM51.7661 8.27708L43.7224 0.233325C43.4075 -0.0815186 42.8896 -0.0815186 42.5747 0.233325L41.4271 1.38098C41.1122 1.69583 41.1122 2.21379 41.4271 2.52864L44.3013 5.40286L39.7005 10.0036L33.9521 4.2552L32.2255 2.52864C31.9107 2.21379 31.3927 2.21379 31.0779 2.52864L27.6349 5.97161C27.32 6.28645 27.32 6.80442 27.6349 7.11926L29.3615 8.84583L43.1435 22.6482L44.87 24.3747C45.1849 24.6896 45.7029 24.6896 46.0177 24.3747L49.4607 20.9216C49.7755 20.6068 49.7755 20.0888 49.4607 19.7739L41.9958 12.3091L46.5966 7.70833L49.4708 10.5825C49.7857 10.8974 50.3036 10.8974 50.6185 10.5825L51.7661 9.43489C52.081 9.10989 52.081 8.60208 51.7661 8.27708Z" fill="#F3BC5F"/>
</g>
<defs>
<clipPath id="clip0">
<rect width="52" height="52" fill="white"/>
</clipPath>
</defs>
</svg>
