<svg width="20" height="20" viewBox="0 0 20 20" fill="none" xmlns="http://www.w3.org/2000/svg">
<g clip-path="url(#clip0)">
<path d="M18.8886 8.88857H18.0468C16.0671 8.88857 15.0753 6.49521 16.4753 5.09521L17.0703 4.49951C17.2664 4.28888 17.3732 4.01034 17.3681 3.72256C17.3629 3.43478 17.2463 3.16023 17.0428 2.95673C16.8392 2.75323 16.5646 2.63667 16.2768 2.63161C15.9891 2.62655 15.7105 2.73338 15.5 2.92959L14.9046 3.52412C13.5046 4.92373 11.1113 3.93232 11.1113 1.95264V1.11084C11.1113 0.816097 10.9942 0.533427 10.7858 0.325012C10.5774 0.116598 10.2947 -0.000488281 9.99996 -0.000488281C9.70522 -0.000488281 9.42255 0.116598 9.21413 0.325012C9.00572 0.533427 8.88863 0.816097 8.88863 1.11084V1.95303C8.88863 3.93271 6.49527 4.92412 5.09527 3.52451L4.49996 2.92959C4.28938 2.73338 4.01087 2.62655 3.72308 2.63161C3.4353 2.63667 3.16072 2.75323 2.95717 2.95673C2.75362 3.16023 2.637 3.43478 2.63186 3.72256C2.62673 4.01034 2.73349 4.28888 2.92965 4.49951L3.52535 5.09521C4.92535 6.49521 3.93355 8.88857 1.95387 8.88857H1.11129C0.963619 8.88581 0.81688 8.9125 0.679646 8.96709C0.542412 9.02169 0.417438 9.10309 0.312027 9.20655C0.206617 9.31 0.122885 9.43343 0.0657254 9.56961C0.00856604 9.7058 -0.020874 9.85201 -0.020874 9.99971C-0.020874 10.1474 0.00856604 10.2936 0.0657254 10.4298C0.122885 10.566 0.206617 10.6894 0.312027 10.7929C0.417438 10.8963 0.542412 10.9777 0.679646 11.0323C0.81688 11.0869 0.963619 11.1136 1.11129 11.1108H1.95309C3.93277 11.1108 4.92457 13.5046 3.52457 14.9046L2.92965 15.4999C2.73541 15.7109 2.63026 15.9888 2.63619 16.2756C2.64212 16.5623 2.75866 16.8356 2.96145 17.0384C3.16424 17.2412 3.43758 17.3577 3.72431 17.3637C4.01104 17.3696 4.28896 17.2645 4.49996 17.0702L5.09527 16.4745C6.49527 15.0745 8.88863 16.0663 8.88863 18.046V18.8874C8.88863 19.1821 9.00572 19.4648 9.21413 19.6732C9.42255 19.8816 9.70522 19.9987 9.99996 19.9987C10.2947 19.9987 10.5774 19.8816 10.7858 19.6732C10.9942 19.4648 11.1113 19.1821 11.1113 18.8874V18.0468C11.1113 16.0671 13.5046 15.0753 14.9046 16.4753L15.5 17.0702C15.711 17.2645 15.9889 17.3696 16.2756 17.3637C16.5623 17.3577 16.8357 17.2412 17.0385 17.0384C17.2413 16.8356 17.3578 16.5623 17.3637 16.2756C17.3697 15.9888 17.2645 15.7109 17.0703 15.4999L16.4746 14.9046C15.0746 13.5046 16.0664 11.1108 18.0461 11.1108H18.8875C19.0351 11.1136 19.1819 11.0869 19.3191 11.0323C19.4563 10.9777 19.5813 10.8963 19.6867 10.7929C19.7921 10.6894 19.8759 10.566 19.933 10.4298C19.9902 10.2936 20.0196 10.1474 20.0196 9.99971C20.0196 9.85201 19.9902 9.7058 19.933 9.56961C19.8759 9.43343 19.7921 9.31 19.6867 9.20655C19.5813 9.10309 19.4563 9.02169 19.3191 8.96709C19.1819 8.9125 19.0351 8.88581 18.8875 8.88857H18.8886ZM8.74996 10.6249C8.37912 10.6249 8.01661 10.5149 7.70827 10.3089C7.39992 10.1029 7.1596 9.81005 7.01769 9.46743C6.87577 9.12482 6.83864 8.74782 6.91099 8.38411C6.98333 8.02039 7.16191 7.6863 7.42413 7.42408C7.68636 7.16185 8.02045 6.98328 8.38416 6.91093C8.74788 6.83858 9.12488 6.87571 9.46749 7.01763C9.8101 7.15954 10.1029 7.39987 10.309 7.70821C10.515 8.01655 10.625 8.37906 10.625 8.7499C10.625 9.24718 10.4274 9.7241 10.0758 10.0757C9.72415 10.4274 9.24724 10.6249 8.74996 10.6249ZM11.875 12.8124C11.6895 12.8124 11.5083 12.7574 11.3541 12.6544C11.1999 12.5514 11.0798 12.405 11.0088 12.2337C10.9379 12.0624 10.9193 11.8739 10.9555 11.692C10.9916 11.5101 11.0809 11.3431 11.212 11.212C11.3432 11.0809 11.5102 10.9916 11.6921 10.9554C11.8739 10.9192 12.0624 10.9378 12.2337 11.0088C12.405 11.0797 12.5514 11.1999 12.6545 11.3541C12.7575 11.5082 12.8125 11.6895 12.8125 11.8749C12.8125 12.1235 12.7137 12.362 12.5379 12.5378C12.3621 12.7136 12.1236 12.8124 11.875 12.8124Z" fill="#F3BC5F"/>
</g>
<defs>
<clipPath id="clip0">
<rect width="20" height="20" fill="white"/>
</clipPath>
</defs>
</svg>
